<?xml version="1.0" standalone="no"?>
<!DOCTYPE svg PUBLIC "-//W3C//DTD SVG 20010904//EN"
 "http://www.w3.org/TR/2001/REC-SVG-20010904/DTD/svg10.dtd">
<svg version="1.0" xmlns="http://www.w3.org/2000/svg"
 width="742.000000pt" height="310.000000pt" viewBox="0 0 742.000000 310.000000"
 preserveAspectRatio="xMidYMid meet">

<g transform="translate(0.000000,310.000000) scale(0.100000,-0.100000)"
fill="#000000" stroke="none">
<path d="M3330 1606 c-136 -39 -236 -132 -279 -259 -90 -261 41 -524 292 -588
70 -17 219 -7 289 20 95 37 193 142 223 239 6 22 6 22 -103 22 l-109 0 -44
-44 c-163 -163 -402 -3 -361 241 13 79 43 128 101 164 88 56 225 32 276 -48
l20 -32 113 -1 c66 0 112 4 112 10 0 5 -11 33 -24 62 -36 81 -96 142 -182 184
-69 35 -82 38 -177 40 -64 2 -119 -1 -147 -10z"/>
<path d="M4285 1228 c-76 -211 -146 -404 -156 -430 l-19 -48 109 0 109 0 27
80 27 80 161 -2 162 -3 26 -75 26 -75 107 -3 c58 -1 106 1 106 5 0 4 -68 198
-152 431 l-153 422 -121 0 -121 0 -138 -382z m314 -1 c28 -82 51 -153 51 -158
0 -5 -47 -9 -105 -9 -82 0 -105 3 -105 14 0 20 100 310 105 304 1 -2 25 -70
54 -151z"/>
<path d="M5250 1181 l0 -431 100 0 100 0 0 165 0 165 29 0 c28 0 35 -9 110
-148 45 -82 87 -156 94 -166 10 -14 28 -16 124 -14 l113 3 -95 162 c-52 89
-95 167 -95 172 0 5 13 14 30 19 93 33 150 123 150 236 -1 114 -46 187 -147
237 -46 22 -60 24 -280 27 l-233 4 0 -431z m422 231 c26 -25 31 -36 31 -75 0
-89 -49 -121 -178 -115 l-70 3 -3 108 -3 107 96 0 c90 0 96 -1 127 -28z"/>
<path d="M6230 1180 l0 -430 260 0 260 0 0 85 0 85 -160 0 -160 0 0 95 0 95
145 0 145 0 0 80 0 80 -145 0 -145 0 0 90 0 90 160 0 160 0 0 80 0 80 -260 0
-260 0 0 -430z"/>
<path d="M2098 717 c-153 -110 -276 -202 -274 -205 9 -8 166 73 257 133 97 64
241 191 280 246 11 16 19 29 17 28 -2 0 -128 -91 -280 -202z"/>
</g>
</svg>
